<svg width="25" height="25" viewBox="0 0 25 25" fill="none" xmlns="http://www.w3.org/2000/svg">
<path d="M12.7229 3.19732C15.2424 3.17982 17.6656 4.1639 19.4595 5.93308C21.2535 7.70225 22.2711 10.1116 22.2886 12.6311C22.3061 15.1506 21.322 17.5738 19.5528 19.3678C17.7837 21.1617 15.3744 22.1794 12.8548 22.1969C10.3353 22.2144 7.91207 21.2303 6.11815 19.4611C4.32422 17.6919 3.30657 15.2826 3.28907 12.7631C3.27157 10.2436 4.25565 7.82032 6.02483 6.0264C7.79401 4.23247 10.2034 3.21482 12.7229 3.19732Z" stroke="white" stroke-width="1.5"/>
<path d="M15.1588 12.6806C15.1497 11.3717 14.0812 10.318 12.7724 10.3271C11.4635 10.3362 10.4098 11.4047 10.4189 12.7135C10.428 14.0224 11.4964 15.0761 12.8053 15.067C14.1142 15.0579 15.1679 13.9895 15.1588 12.6806Z" stroke="white" stroke-width="1.5"/>
<path d="M12.8352 19.3769C11.8277 19.384 10.8316 19.1634 9.92121 18.7318C9.01085 18.3 8.20979 17.6681 7.57779 16.8834" stroke="white" stroke-width="1.5" stroke-linecap="round" stroke-linejoin="round"/>
<path d="M14.7445 6.30334C15.7907 6.62579 16.7419 7.20008 17.5145 7.97583C18.287 8.75159 18.8574 9.70509 19.1755 10.7527" stroke="white" stroke-width="1.5" stroke-linecap="round" stroke-linejoin="round"/>
</svg>
