<svg width="33" height="32" viewBox="0 0 33 32" fill="none" xmlns="http://www.w3.org/2000/svg">
<path d="M5.68506 4.93335V27.0667" stroke="white" stroke-width="4" stroke-linecap="round" stroke-linejoin="round"/>
<path d="M27.3149 24.8317V7.17381C27.3141 6.81177 27.212 6.4572 27.0201 6.15019C26.8283 5.84316 26.5543 5.59593 26.2293 5.43645C25.9043 5.27697 25.5411 5.2116 25.1809 5.24772C24.8207 5.28385 24.4777 5.42003 24.1908 5.64087L11.9662 15.1489C11.7241 15.3379 11.5303 15.5816 11.4007 15.86C11.2712 16.1384 11.2096 16.4436 11.2209 16.7504C11.2323 17.0573 11.3163 17.3571 11.4661 17.6252C11.6159 17.8932 11.8272 18.122 12.0826 18.2924L24.3073 26.4423C24.5991 26.6344 24.9375 26.7443 25.2865 26.7601C25.6356 26.776 25.9825 26.6973 26.2905 26.5323C26.5985 26.3673 26.8564 26.1223 27.0367 25.8229C27.2171 25.5236 27.3132 25.1812 27.3149 24.8317Z" fill="white" stroke="white" stroke-width="4" stroke-linecap="round" stroke-linejoin="round"/>
</svg>
