<svg width="33" height="32" viewBox="0 0 33 32" fill="none" xmlns="http://www.w3.org/2000/svg">
<path d="M5.83337 7.33331H27.1667" stroke="white" stroke-width="3" stroke-linecap="round" stroke-linejoin="round"/>
<path d="M5.83337 15.3333H27.1667" stroke="white" stroke-width="3" stroke-linecap="round" stroke-linejoin="round"/>
<path d="M5.83337 23.3333H16.5" stroke="white" stroke-width="3" stroke-linecap="round" stroke-linejoin="round"/>
<path d="M21.1844 20.0508V26.6139C21.1847 26.7484 21.2227 26.8801 21.294 26.9943C21.3654 27.1084 21.4671 27.2003 21.5879 27.2596C21.7087 27.3188 21.8438 27.3432 21.9776 27.3297C22.1115 27.3163 22.239 27.2657 22.3456 27.1836L26.8892 23.6497C26.9792 23.5795 27.0512 23.4889 27.0994 23.3853C27.1475 23.2819 27.1704 23.1685 27.1662 23.0544C27.162 22.9404 27.1307 22.8289 27.0751 22.7293C27.0194 22.6297 26.9408 22.5447 26.8459 22.4813L22.3023 19.4523C22.1939 19.3808 22.0682 19.34 21.9383 19.3341C21.8086 19.3281 21.6796 19.3575 21.5652 19.4188C21.4507 19.48 21.3548 19.5712 21.2879 19.6824C21.2208 19.7936 21.1851 19.9209 21.1844 20.0508Z" stroke="white" stroke-width="3" stroke-linecap="round" stroke-linejoin="round"/>
</svg>
