<svg width="25" height="25" viewBox="0 0 25 25" fill="none" xmlns="http://www.w3.org/2000/svg">
<path d="M4.83251 6.00336L20.8321 5.89222" stroke="white" stroke-width="1.5" stroke-linecap="round" stroke-linejoin="round"/>
<path d="M4.87418 12.0032L20.8738 11.8921" stroke="white" stroke-width="1.5" stroke-linecap="round" stroke-linejoin="round"/>
<path d="M4.91586 18.0031L12.9157 17.9475" stroke="white" stroke-width="1.5" stroke-linecap="round" stroke-linejoin="round"/>
<path d="M16.4118 15.4612L16.446 20.3834C16.4469 20.4843 16.4761 20.5829 16.5302 20.6682C16.5842 20.7534 16.661 20.8217 16.7519 20.8656C16.8428 20.9094 16.9443 20.927 17.0446 20.9162C17.1449 20.9054 17.2402 20.8668 17.3198 20.8047L20.709 18.1307C20.7762 18.0775 20.8297 18.0092 20.8652 17.9313C20.9008 17.8534 20.9174 17.7683 20.9136 17.6827C20.9099 17.5973 20.8858 17.5138 20.8436 17.4394C20.8013 17.365 20.742 17.3016 20.6704 17.2546L17.247 15.0065C17.1654 14.9535 17.0709 14.9236 16.9734 14.9198C16.8761 14.916 16.7796 14.9387 16.6941 14.9853C16.6085 15.0318 16.5371 15.1007 16.4875 15.1844C16.4377 15.2682 16.4116 15.3638 16.4118 15.4612Z" stroke="white" stroke-width="1.5" stroke-linecap="round" stroke-linejoin="round"/>
</svg>
