<svg width="56" height="37" viewBox="0 0 56 37" fill="none" xmlns="http://www.w3.org/2000/svg">
<path d="M39.6667 9.88616H46.6667M46.6667 9.88616H53.6667M46.6667 9.88616V5.32332M46.6667 9.88616V14.449" stroke="#207D3A" stroke-width="4" stroke-linecap="round" stroke-linejoin="round"/>
<path d="M14 24.335V7.60461L32.6667 6.08379" stroke="white" stroke-width="3" stroke-linecap="round" stroke-linejoin="round"/>
<path d="M35 21.2933V15.2095" stroke="white" stroke-width="3" stroke-linecap="round" stroke-linejoin="round"/>
<path d="M28 28.898H30.3333C32.9107 28.898 35 27.5361 35 25.8561V21.2933H28C25.4226 21.2933 23.3333 22.6551 23.3333 24.3352V25.8561C23.3333 27.5361 25.4226 28.898 28 28.898Z" stroke="white" stroke-width="3" stroke-linecap="round" stroke-linejoin="round"/>
<path d="M7 31.9399H9.33334C11.9107 31.9399 14 30.578 14 28.898V24.3351H7C4.42267 24.3351 2.33334 25.697 2.33334 27.377V28.898C2.33334 30.578 4.42267 31.9399 7 31.9399Z" stroke="white" stroke-width="3" stroke-linecap="round" stroke-linejoin="round"/>
</svg>
