<svg width="25" height="25" viewBox="0 0 25 25" fill="none" xmlns="http://www.w3.org/2000/svg">
<path d="M11.2828 19.3276C12.8741 19.3298 14.4302 18.8601 15.7544 17.9781C17.0785 17.096 18.1112 15.8413 18.7216 14.3726C19.332 12.9039 19.4929 11.2872 19.1837 9.72709C18.8746 8.16701 18.1093 6.73363 16.9849 5.6083C15.8604 4.48298 14.4272 3.71629 12.8666 3.40524C11.3061 3.09419 9.68823 3.25276 8.21786 3.86089C6.74748 4.46901 5.49062 5.49936 4.60632 6.82157C3.72202 8.14378 3.25 9.69843 3.25 11.2888C3.25 13.419 4.09596 15.4621 5.60209 16.9693C7.10821 18.4766 9.15135 19.3248 11.2828 19.3276Z" stroke="white" stroke-width="1.5" stroke-linecap="round" stroke-linejoin="round"/>
<path d="M16.9883 16.991L21.75 21.75" stroke="white" stroke-width="1.5" stroke-linecap="round" stroke-linejoin="round"/>
</svg>
