<svg width="25" height="25" viewBox="0 0 25 25" fill="none" xmlns="http://www.w3.org/2000/svg">
<path d="M18.2352 20.1108C20.0383 20.0983 21.4897 18.6265 21.4772 16.8235C21.4646 15.0206 19.9929 13.5691 18.1899 13.5816C16.3869 13.5941 14.9355 15.0659 14.948 16.8689C14.9605 18.6719 16.4323 20.1234 18.2352 20.1108Z" stroke="white" stroke-width="1.5" stroke-linecap="round"/>
<path d="M6.27265 21.2822C8.07563 21.2696 9.52708 19.7979 9.51456 17.995C9.50204 16.1919 8.03028 14.7405 6.22729 14.753C4.42431 14.7655 2.97284 16.2373 2.98537 18.0403C2.99789 19.8433 4.46966 21.2947 6.27265 21.2822Z" stroke="white" stroke-width="1.5" stroke-linecap="round"/>
<path d="M21.4772 16.8235L21.4215 8.81442" stroke="white" stroke-width="1.5" stroke-linecap="round"/>
<path d="M9.51457 17.9949L9.4665 11.0739" stroke="white" stroke-width="1.5" stroke-linecap="round"/>
<path d="M21.4216 8.81446L9.46654 11.074L9.44175 7.50472C9.42977 6.98943 9.60104 6.48661 9.92509 6.08579C10.2491 5.68496 10.7049 5.41215 11.2113 5.31593L20.1014 3.6218C20.2596 3.59169 20.4225 3.59707 20.5784 3.63752C20.7341 3.67798 20.8791 3.75252 21.0027 3.85576C21.1262 3.95901 21.2253 4.08838 21.2928 4.23456C21.3603 4.38073 21.3945 4.54007 21.3931 4.70107L21.4216 8.81446Z" stroke="white" stroke-width="1.5" stroke-linecap="round" stroke-linejoin="round"/>
</svg>
