<svg width="37" height="36" viewBox="0 0 37 36" fill="none" xmlns="http://www.w3.org/2000/svg">
<path d="M13.25 6.75H8.75C7.92158 6.75 7.25 7.42158 7.25 8.25V27.75C7.25 28.5784 7.92158 29.25 8.75 29.25H13.25C14.0784 29.25 14.75 28.5784 14.75 27.75V8.25C14.75 7.42158 14.0784 6.75 13.25 6.75Z" fill="white" stroke="white" stroke-width="4" stroke-linecap="round" stroke-linejoin="round"/>
<path d="M28.25 6.75H23.75C22.9216 6.75 22.25 7.42158 22.25 8.25V27.75C22.25 28.5784 22.9216 29.25 23.75 29.25H28.25C29.0785 29.25 29.75 28.5784 29.75 27.75V8.25C29.75 7.42158 29.0785 6.75 28.25 6.75Z" fill="white" stroke="white" stroke-width="4" stroke-linecap="round" stroke-linejoin="round"/>
</svg>
