<svg width="22" height="26" viewBox="0 0 22 26" fill="none" xmlns="http://www.w3.org/2000/svg">
<path d="M17.9873 8.92957C20.147 10.2793 21.2267 10.9542 21.597 11.8183C21.9204 12.5728 21.9204 13.4271 21.597 14.1817C21.2267 15.0457 20.147 15.7206 17.9873 17.0704L7.844 23.41C5.44707 24.9081 4.2486 25.6572 3.25959 25.5775C2.39751 25.5082 1.60727 25.0704 1.0916 24.376C0.5 23.5795 0.5 22.1662 0.5 19.3396V6.66036C0.5 3.83379 0.5 2.42052 1.0916 1.62398C1.60727 0.929655 2.39751 0.491671 3.25959 0.422356C4.2486 0.342856 5.44707 1.0919 7.844 2.58998L17.9873 8.92957Z" fill="#2E2E2E"/>
</svg>
