<svg width="33" height="32" viewBox="0 0 33 32" fill="none" xmlns="http://www.w3.org/2000/svg">
<path d="M27.2498 27V5" stroke="white" stroke-width="4" stroke-linecap="round" stroke-linejoin="round"/>
<path d="M5.75024 7.22153V24.7731C5.75111 25.1329 5.85263 25.4853 6.04332 25.7905C6.23402 26.0957 6.50628 26.3415 6.82935 26.5C7.1524 26.6585 7.51336 26.7235 7.87143 26.6876C8.22948 26.6516 8.57036 26.5163 8.85551 26.2968L21.0065 16.846C21.2472 16.6581 21.4398 16.4159 21.5686 16.1392C21.6974 15.8624 21.7586 15.5591 21.7474 15.2541C21.736 14.9491 21.6525 14.6511 21.5036 14.3847C21.3547 14.1181 21.1447 13.8908 20.8908 13.7213L8.73979 5.62068C8.44971 5.42964 8.11342 5.32048 7.76644 5.30472C7.41946 5.28896 7.07467 5.3672 6.76847 5.53116C6.46227 5.69513 6.20603 5.93873 6.0268 6.23627C5.84758 6.5338 5.75203 6.8742 5.75024 7.22153Z" fill="white" stroke="white" stroke-width="4" stroke-linecap="round" stroke-linejoin="round"/>
</svg>
